<svg width="64" height="64" viewBox="0 0 64 64" fill="none" xmlns="http://www.w3.org/2000/svg">
<g clip-path="url(#clip0_5158_523)">
<path d="M12 10.6667L17.3334 8H22.6667L25.3334 10.6667L28 13.3333H32H36L38.6667 10.6667L40 9.33333L45.3334 8L49.3334 9.33333L52 12L56 16L57.3334 22.6667V28L52 30.6667L53.3334 34.6667V42.6667L50.6667 49.3333L42.6667 53.3333L36 56L25.3334 54.6667L16 50.6667L12 46.6667L10.6667 36V32L9.33335 29.3333L6.66669 25.3333L8.00002 21.3333L12 10.6667Z" fill="#9282FA" fill-opacity="0.2"/>
<path d="M30 43.3333H34L32 45.3333L30 43.3333Z" stroke="#9282FA" stroke-width="4" stroke-linecap="round" stroke-linejoin="round"/>
<path d="M42.6667 37.3333V38.6667" stroke="#9282FA" stroke-width="4" stroke-linecap="round" stroke-linejoin="round"/>
<path d="M11.7867 29.992C11.0404 32.8739 10.664 35.8391 10.6667 38.816C10.6667 49.9413 20.2187 56 32 56C43.7814 56 53.3334 49.9413 53.3334 38.816C53.32 35.8269 52.8773 32.8552 52.0187 29.992" stroke="#9282FA" stroke-width="4" stroke-linecap="round" stroke-linejoin="round"/>
<path d="M21.3333 37.3333V38.6667" stroke="#9282FA" stroke-width="4" stroke-linecap="round" stroke-linejoin="round"/>
<path d="M22.6666 22.6667C21.6426 25.4667 19.7786 28.0747 16.416 29.3333C11.2666 31.2587 6.87995 28.5413 6.66662 26.6667C6.36528 24.016 9.80528 9.25333 17.3333 8C22.4613 7.144 27.0693 10.2533 27.0693 13.96C30.4421 13.1034 33.98 13.142 37.3333 14.072C37.3333 10.3653 42.2506 7.144 47.3786 8C54.9066 9.25333 58.3466 24.016 58.0453 26.6667C57.8319 28.5413 53.4453 31.2587 48.2959 29.3333C44.9333 28.0747 43.3493 25.4667 42.3253 22.6667" stroke="#9282FA" stroke-width="4" stroke-linecap="round" stroke-linejoin="round"/>
</g>
<defs>
<clipPath id="clip0_5158_523">
<rect width="64" height="64" rx="12" fill="white"/>
</clipPath>
</defs>
</svg>
